<svg xmlns="http://www.w3.org/2000/svg" width="100.786" height="35.899" viewBox="0 0 100.786 35.899"><defs><style>.a{fill:#fffffc;}</style></defs><g transform="translate(19.753 24.015)"><g transform="translate(0 0.111)"><path class="a" d="M119.233,143.5v-8.941h2.837a2.536,2.536,0,0,1,1.314.3,1.848,1.848,0,0,1,.756.878,3.5,3.5,0,0,1,.248,1.391,2.914,2.914,0,0,1-.326,1.5,1.8,1.8,0,0,1-.888.767,3.446,3.446,0,0,1-1.291.226h-.828V143.5Zm1.822-5.155h.64a1.216,1.216,0,0,0,.613-.127.645.645,0,0,0,.292-.4,2.674,2.674,0,0,0,.078-.706,3.294,3.294,0,0,0-.061-.685.705.705,0,0,0-.271-.43,1.125,1.125,0,0,0-.662-.155h-.629Z" transform="translate(-119.233 -134.557)"/></g><g transform="translate(6.87 0)"><path class="a" d="M146.107,143.34a2.949,2.949,0,0,1-1.556-.354,1.966,1.966,0,0,1-.823-1.01,4.448,4.448,0,0,1-.248-1.573V137.07a4.4,4.4,0,0,1,.248-1.567,1.917,1.917,0,0,1,.823-.994,3.723,3.723,0,0,1,3.13.006,1.934,1.934,0,0,1,.828.993,4.363,4.363,0,0,1,.248,1.562V140.4a4.455,4.455,0,0,1-.248,1.573,1.956,1.956,0,0,1-.828,1.01A3.006,3.006,0,0,1,146.107,143.34Zm0-1.314a.725.725,0,0,0,.519-.16.806.806,0,0,0,.221-.431,2.916,2.916,0,0,0,.055-.579v-4.228a2.832,2.832,0,0,0-.055-.574.8.8,0,0,0-.221-.425.726.726,0,0,0-.519-.16.693.693,0,0,0-.5.16.8.8,0,0,0-.22.425,2.79,2.79,0,0,0-.055.574v4.228a3.232,3.232,0,0,0,.05.579.777.777,0,0,0,.215.431A.709.709,0,0,0,146.107,142.026Z" transform="translate(-143.48 -134.167)"/></g><g transform="translate(14.528 0)"><path class="a" d="M173.043,143.34a2.831,2.831,0,0,1-1.379-.3,1.928,1.928,0,0,1-.834-.916,4.234,4.234,0,0,1-.325-1.562l1.567-.265a4.56,4.56,0,0,0,.116.922,1.119,1.119,0,0,0,.287.552.673.673,0,0,0,.481.182.5.5,0,0,0,.48-.221,1,1,0,0,0,.127-.508,1.586,1.586,0,0,0-.271-.944,4.509,4.509,0,0,0-.712-.767l-.927-.806a3.744,3.744,0,0,1-.811-.949,2.513,2.513,0,0,1-.315-1.3,2.18,2.18,0,0,1,.646-1.694,2.525,2.525,0,0,1,1.772-.591,2.413,2.413,0,0,1,1.1.221,1.689,1.689,0,0,1,.668.59,2.427,2.427,0,0,1,.331.806,5.433,5.433,0,0,1,.116.867l-1.556.231a7.1,7.1,0,0,0-.072-.717.989.989,0,0,0-.2-.486.553.553,0,0,0-.447-.177.526.526,0,0,0-.474.238.939.939,0,0,0-.155.524,1.317,1.317,0,0,0,.215.779,3.8,3.8,0,0,0,.59.634l.9.795a5.148,5.148,0,0,1,.966,1.11,2.781,2.781,0,0,1,.4,1.54,2.275,2.275,0,0,1-.287,1.137,2.057,2.057,0,0,1-.8.794A2.434,2.434,0,0,1,173.043,143.34Z" transform="translate(-170.505 -134.167)"/></g><g transform="translate(20.886 0.111)"><path class="a" d="M194.324,143.5v-7.583h-1.38v-1.357h4.57v1.357h-1.357V143.5Z" transform="translate(-192.944 -134.557)"/></g><g transform="translate(27.649 0.111)"><path class="a" d="M216.813,143.5v-8.941h3.9v1.258h-2.075v2.373h1.6v1.27h-1.6v2.8h2.1V143.5Zm3.19,2.8a4.642,4.642,0,0,1-.585-.038,1.923,1.923,0,0,1-.552-.155,1.008,1.008,0,0,1-.414-.342,1.021,1.021,0,0,1-.16-.6,1.584,1.584,0,0,1,.137-.629,2.69,2.69,0,0,1,.8-1.038h.761q-.121.188-.243.415a2.469,2.469,0,0,0-.193.464,1.647,1.647,0,0,0-.072.48.509.509,0,0,0,.232.491,1.041,1.041,0,0,0,.508.127c.059,0,.117,0,.177-.006s.111-.009.155-.017l-.188.817c-.044.007-.1.015-.165.022A1.8,1.8,0,0,1,220,146.3Z" transform="translate(-216.813 -134.557)"/></g><g transform="translate(33.871 0.111)"><path class="a" d="M238.772,143.5v-8.941h2.837a2.536,2.536,0,0,1,1.314.3,1.845,1.845,0,0,1,.756.878,3.491,3.491,0,0,1,.248,1.391,2.914,2.914,0,0,1-.325,1.5,1.8,1.8,0,0,1-.889.767,3.445,3.445,0,0,1-1.291.226h-.828V143.5Zm1.821-5.155h.64a1.218,1.218,0,0,0,.613-.127.647.647,0,0,0,.292-.4,2.675,2.675,0,0,0,.078-.706,3.3,3.3,0,0,0-.061-.685.7.7,0,0,0-.271-.43,1.125,1.125,0,0,0-.662-.155h-.629Z" transform="translate(-238.772 -134.557)"/></g><g transform="translate(40.935 0)"><path class="a" d="M266.332,143.34a2.948,2.948,0,0,1-1.556-.354,1.966,1.966,0,0,1-.823-1.01,4.461,4.461,0,0,1-.248-1.573V137.07a4.416,4.416,0,0,1,.248-1.567,1.918,1.918,0,0,1,.823-.994,3.722,3.722,0,0,1,3.129.006,1.933,1.933,0,0,1,.828.993,4.356,4.356,0,0,1,.249,1.562V140.4a4.447,4.447,0,0,1-.249,1.573,1.955,1.955,0,0,1-.828,1.01A3.005,3.005,0,0,1,266.332,143.34Zm0-1.314a.724.724,0,0,0,.519-.16.8.8,0,0,0,.221-.431,2.915,2.915,0,0,0,.055-.579v-4.228a2.83,2.83,0,0,0-.055-.574.8.8,0,0,0-.221-.425.725.725,0,0,0-.519-.16.691.691,0,0,0-.5.16.8.8,0,0,0-.221.425,2.789,2.789,0,0,0-.056.574v4.228a3.232,3.232,0,0,0,.05.579.772.772,0,0,0,.216.431A.706.706,0,0,0,266.332,142.026Z" transform="translate(-263.705 -134.167)"/></g><g transform="translate(48.177 0.111)"><path class="a" d="M290.42,143.5l-1.159-8.941h1.545l.618,5.464.784-5.453h1.225l.817,5.442.618-5.453h1.523l-1.148,8.941H293.7l-.872-5.663L292,143.5Z" transform="translate(-289.261 -134.557)"/></g><g transform="translate(56.709 0.111)"><path class="a" d="M319.375,143.5l1.733-8.941h2.02l1.722,8.941h-1.689l-.32-1.964h-1.413l-.342,1.964Zm2.219-3.079h1.07l-.541-3.61Z" transform="translate(-319.375 -134.557)"/></g><g transform="translate(64.127 0.111)"><path class="a" d="M345.556,143.5v-8.941h1.269l1.987,4.658v-4.658h1.5V143.5H349.1l-1.987-4.945V143.5Z" transform="translate(-345.556 -134.557)"/></g><g transform="translate(71.368 0.111)"><path class="a" d="M371.111,143.5v-8.941h1.811V143.5Z" transform="translate(-371.111 -134.557)"/></g><g transform="translate(74.879 0.111)"><path class="a" d="M383.5,143.5l1.733-8.941h2.02l1.722,8.941h-1.689l-.32-1.964h-1.412l-.342,1.964Zm2.219-3.079h1.07l-.541-3.61Z" transform="translate(-383.501 -134.557)"/></g></g><g transform="translate(19.753 2.228)"><g transform="translate(0 0.179)"><path class="a" d="M119.233,72.429l2.814-14.522h3.281l2.8,14.522h-2.743l-.52-3.191h-2.295l-.556,3.191Zm3.6-5h1.739l-.878-5.863Z" transform="translate(-119.233 -57.907)"/></g><g transform="translate(11.343)"><path class="a" d="M163.388,72.172a4.6,4.6,0,0,1-2.241-.493,3.124,3.124,0,0,1-1.353-1.488,6.861,6.861,0,0,1-.529-2.536l2.546-.43a7.369,7.369,0,0,0,.188,1.5,1.811,1.811,0,0,0,.466.9,1.089,1.089,0,0,0,.78.3.82.82,0,0,0,.779-.359,1.625,1.625,0,0,0,.207-.825,2.582,2.582,0,0,0-.439-1.533,7.36,7.36,0,0,0-1.157-1.246l-1.506-1.309a6.046,6.046,0,0,1-1.318-1.542,4.078,4.078,0,0,1-.511-2.116,3.542,3.542,0,0,1,1.048-2.752,4.106,4.106,0,0,1,2.878-.959,3.921,3.921,0,0,1,1.793.358,2.742,2.742,0,0,1,1.085.959,3.941,3.941,0,0,1,.538,1.308,8.893,8.893,0,0,1,.188,1.408l-2.528.376a11.38,11.38,0,0,0-.117-1.165,1.591,1.591,0,0,0-.322-.789.9.9,0,0,0-.726-.287.856.856,0,0,0-.771.385,1.529,1.529,0,0,0-.251.852,2.13,2.13,0,0,0,.35,1.264,6.155,6.155,0,0,0,.959,1.031l1.47,1.291a8.369,8.369,0,0,1,1.569,1.8,4.517,4.517,0,0,1,.655,2.5,3.688,3.688,0,0,1-.466,1.847,3.331,3.331,0,0,1-1.3,1.291A3.957,3.957,0,0,1,163.388,72.172Z" transform="translate(-159.264 -57.274)"/></g><g transform="translate(21.508 0.179)"><path class="a" d="M197.973,72.429V66.674l-2.832-8.767h2.778l1.56,5.11,1.452-5.11h2.689l-2.8,8.767v5.755Z" transform="translate(-195.141 -57.907)"/></g><g transform="translate(32.268)"><path class="a" d="M237.24,72.172A4.6,4.6,0,0,1,235,71.679a3.128,3.128,0,0,1-1.354-1.488,6.877,6.877,0,0,1-.529-2.536l2.546-.43a7.41,7.41,0,0,0,.188,1.5,1.81,1.81,0,0,0,.466.9,1.091,1.091,0,0,0,.78.3.821.821,0,0,0,.779-.359,1.625,1.625,0,0,0,.206-.825,2.578,2.578,0,0,0-.439-1.533,7.342,7.342,0,0,0-1.156-1.246l-1.506-1.309a6.064,6.064,0,0,1-1.318-1.542,4.081,4.081,0,0,1-.511-2.116,3.542,3.542,0,0,1,1.049-2.752,4.105,4.105,0,0,1,2.877-.959,3.92,3.92,0,0,1,1.793.358,2.74,2.74,0,0,1,1.085.959,3.942,3.942,0,0,1,.538,1.308,8.922,8.922,0,0,1,.188,1.408l-2.528.376a11.389,11.389,0,0,0-.116-1.165,1.594,1.594,0,0,0-.323-.789.9.9,0,0,0-.726-.287.855.855,0,0,0-.771.385,1.529,1.529,0,0,0-.251.852,2.134,2.134,0,0,0,.35,1.264,6.154,6.154,0,0,0,.959,1.031l1.47,1.291a8.4,8.4,0,0,1,1.569,1.8,4.519,4.519,0,0,1,.654,2.5,3.691,3.691,0,0,1-.466,1.847,3.336,3.336,0,0,1-1.3,1.291A3.958,3.958,0,0,1,237.24,72.172Z" transform="translate(-233.116 -57.274)"/></g><g transform="translate(42.595 0.179)"><path class="a" d="M271.8,72.429V60.112h-2.241v-2.2h7.423v2.2h-2.206V72.429Z" transform="translate(-269.562 -57.907)"/></g><g transform="translate(53.119 0.179)"><path class="a" d="M306.7,72.429V57.907h6.329V59.95h-3.37v3.855h2.6v2.062h-2.6v4.554h3.406v2.008Z" transform="translate(-306.703 -57.907)"/></g><g transform="translate(62.764 0.179)"><path class="a" d="M340.745,72.429V57.907h2.062l3.227,7.565V57.907h2.438V72.429H346.5L343.273,64.4v8.031Z" transform="translate(-340.745 -57.907)"/></g><g transform="translate(73.611 0.179)"><path class="a" d="M381.266,72.429V60.112h-2.241v-2.2h7.423v2.2h-2.206V72.429Z" transform="translate(-379.025 -57.907)"/></g></g><path class="a" d="M62.327,85.309H49.52V49.41H66.982V68.687h83.324v2.336H66.982v14.27H64.646V71.023H62.327Zm-10.47-2.336H59.99V71.023h-5.8V58.7h8.133v9.983h2.319V51.747H51.857ZM56.53,68.687h3.46V61.04H56.53Z" transform="translate(-49.52 -49.41)"/></svg>